<svg id="Layer_1" data-name="Layer 1" xmlns="http://www.w3.org/2000/svg" viewBox="0 0 1588.73 740.54"><defs><style>.cls-1{fill:#d33541;}.cls-2{fill:#f1c50e;}</style></defs><path class="cls-1" d="M385.55,493.93h-96a8.55,8.55,0,0,0-8.55,8.55v97.3a8.55,8.55,0,0,0,8.55,8.55H415.14a80.21,80.21,0,0,1,80.21,80.21h0a8.54,8.54,0,0,1-8.55,8.54H245.85a80.21,80.21,0,0,1-80.21-80.21V227a8.54,8.54,0,0,1,8.54-8.55H487.46A8.54,8.54,0,0,1,496,227h0a80.52,80.52,0,0,1-80.53,80.53H289.57a8.55,8.55,0,0,0-8.55,8.55v83.83a8.54,8.54,0,0,0,8.55,8.54H453.93a8.54,8.54,0,0,1,8.54,8.55h0A76.92,76.92,0,0,1,385.55,493.93Z" transform="translate(-165.64 -169.73)"/><path class="cls-2" d="M522.09,478.91,600,176.15a8.54,8.54,0,0,1,10.4-6.15l141,36.29q61.44,15.81,103.3,56.28t56.33,98.33q14.48,57.87-1.42,121l-5.49,21.33q-16.38,63.68-56.27,107.21T751.8,669.88q-56.2,15.92-116.45.76h0A157.46,157.46,0,0,1,522.09,478.91ZM689.53,291.18,618.85,565.92a8.53,8.53,0,0,0,6.14,10.4l30.57,7.87q48.06,12.36,82.66-15.22t52-95.08l5.16-20.06q17.28-67.17.26-107.87t-66.37-53.4L699.94,285A8.54,8.54,0,0,0,689.53,291.18Z" transform="translate(-165.64 -169.73)"/><path class="cls-1" d="M925.25,633.36l80-305.59a154.17,154.17,0,0,1,188.2-110.08h0q61.37,16.08,103.06,56.73t55.9,98.58q14.22,57.93-2,121l-5.58,21.3q-16.67,63.62-56.73,107t-96.34,59q-56.28,15.68-116.45.25L931.35,643.79A8.54,8.54,0,0,1,925.25,633.36Zm206-331-71.88,274.43a8.54,8.54,0,0,0,6.1,10.43l30.53,8q48,12.57,82.73-14.86t52.37-94.86l5.24-20q17.58-67.1.73-107.87t-66.13-53.68l-29.26-7.67A8.55,8.55,0,0,0,1131.24,302.31Z" transform="translate(-165.64 -169.73)"/><path class="cls-1" d="M1254.71,801.74l-673-59.88c-4.56-.41-8.53,3.66-7.49,8.12a7.07,7.07,0,0,0,1.63,3.12c34.81,39.07,125.09,103.68,144.3,117.27a7,7,0,0,0,7.45.36c20.42-11.42,60-29.44,111.63-28.6,82.2,1.33,137.23,49.47,154.3,66.16a6.89,6.89,0,0,0,7.17,1.57c28-10,191-68.66,256-94.23C1263.81,812.84,1262.29,802.41,1254.71,801.74Z" transform="translate(-165.64 -169.73)"/><circle class="cls-2" cx="623.87" cy="204.8" r="57.06"/><circle class="cls-1" cx="1065.15" cy="204.8" r="57.06"/><path class="cls-1" d="M1666.87,218.48h0a8.54,8.54,0,0,0-8.24,6.3l-77.44,284-77.45-284.06a8.55,8.55,0,0,0-8.25-6.3h0c-59.68,0-101.82,58.49-82.92,115.1L1517.8,648.84l11.41,41.35a8.54,8.54,0,0,0,7.73,6.24,8.44,8.44,0,0,0,3.17.61l39.53-.28,42.62.3a8.35,8.35,0,0,0,3.3-.67,8.52,8.52,0,0,0,7.59-6.22l11.34-41.1L1749.8,333.58C1768.7,277,1726.56,218.48,1666.87,218.48Z" transform="translate(-165.64 -169.73)"/></svg>