<svg id="Layer_1" data-name="Layer 1" xmlns="http://www.w3.org/2000/svg" viewBox="0 0 358.11 306.07"><defs><style>.cls-1{fill:#fff;fill-rule:evenodd;}</style></defs><path class="cls-1" d="M266.39,263.17a92.32,92.32,0,0,0,63.12-159.71,89.6,89.6,0,0,0-130.36-79,89.6,89.6,0,0,0-151,61.29A92.8,92.8,0,0,0,93.41,259.52c2.42,0,4.85-.09,7.27-.28a95.54,95.54,0,0,0,162,3.86C263.9,263.15,265.14,263.17,266.39,263.17ZM182.86,281.7a71.49,71.49,0,0,1-64.37-40.8l-4-8.4-9.15,1.62a68.45,68.45,0,0,1-40-129.82l7.56-3.4-.39-8.28c0-1-.07-2-.07-3a65.23,65.23,0,0,1,115.18-42l7,8.35,9.07-6.05A65.23,65.23,0,0,1,305.15,104.2c0,1.3,0,2.61-.12,3.9l-.38,6.2,4.8,4a68.81,68.81,0,0,1,24.91,52.59,68.06,68.06,0,0,1-68,68,68.88,68.88,0,0,1-8.72-.56l-8.27-1.06-4,7.32A71.08,71.08,0,0,1,182.86,281.7Zm46.29-97.48.24-.1c3.17-1.36,4.3-2.56,4.3-5.86v-4.15c0-3.65-2.1-6-5.53-6H228l-.69.15a67.77,67.77,0,0,1-22.4,4.06,57.2,57.2,0,0,1-21-4l-.2-.08-.77-.1c-3.42,0-5.53,2.34-5.53,6v4.15c0,3.11,1.18,4.52,3.91,5.7l.3.12.29.13a58.39,58.39,0,0,0,23,4.78A67.81,67.81,0,0,0,229.15,184.22ZM123.49,150.13c0-3.35,1.73-5.19,4.06-5.68l22.4-5.88-22.45-5.89c-2.33-.61-4-2.45-4-5.66V120c0-3.09,1.85-4.42,4-4.42a6,6,0,0,1,2.11.42l40,12.93a6.67,6.67,0,0,1,4.71,6.79v5.78a6.69,6.69,0,0,1-4.71,6.8l-40.06,13a6.55,6.55,0,0,1-1.87.3c-2.51,0-4.12-1.8-4.12-4.43Z" transform="translate(-0.61)"/></svg>