<svg width="216.695" height="216.695" viewBox="0 0 57.334 57.334" xmlns="http://www.w3.org/2000/svg"><g fill="#e75c24" color="#000"><path d="M103.61 18.405a6.314 6.314 0 1 1-12.628 0 6.314 6.314 0 0 1 12.628 0zM130.01 4.514a6.314 6.314 0 1 1-12.628 0 6.314 6.314 0 0 1 12.628 0zM128.56 34.729a6.314 6.314 0 1 1-12.628 0 6.314 6.314 0 0 1 12.628 0zM96.722 9.268a9.062 9.062 0 0 1 5.447 1.407 15.43 15.43 0 0 1 12.386-6.578 9.104 9.104 0 0 1 2.032-5.319c-.582-.05-1.17-.076-1.763-.076-7.72 0-14.501 4.274-18.102 10.566zM115.07 40.384a9.092 9.092 0 0 1-1.976-5.483c-5.211-.581-9.636-3.751-11.965-8.196a9.04 9.04 0 0 1-5.598.68c3.12 7.601 10.614 13.002 19.295 13.002.082 0 .163-.002.244-.003zM132.15 8.014a9.282 9.282 0 0 1-3.673 4.291 15.387 15.387 0 0 1 1.8 7.24c0 2.964-.836 5.733-2.282 8.085a9.223 9.223 0 0 1 3.121 4.854c2.84-3.563 4.549-8.062 4.549-12.939a20.67 20.67 0 0 0-3.515-11.532z" transform="translate(-116.728 3.492) scale(1.283)"/></g></svg>